<svg width="302" height="303" viewBox="0 0 302 303" fill="none" xmlns="http://www.w3.org/2000/svg">
<mask id="mask0_390_269" style="mask-type:luminance" maskUnits="userSpaceOnUse" x="0" y="0" width="302" height="303">
<path d="M301.201 0.476074H0.201172V302.476H301.201V0.476074Z" fill="white"/>
</mask>
<g mask="url(#mask0_390_269)">
<path d="M150.701 302.476C233.82 302.476 301.201 234.871 301.201 151.476C301.201 68.0811 233.82 0.476074 150.701 0.476074C67.5823 0.476074 0.201172 68.0811 0.201172 151.476C0.201172 234.871 67.5823 302.476 150.701 302.476Z" fill="#DCDCDC"/>
<mask id="mask1_390_269" style="mask-type:luminance" maskUnits="userSpaceOnUse" x="0" y="0" width="302" height="303">
<path d="M150.701 302.476C233.82 302.476 301.201 234.871 301.201 151.476C301.201 68.0811 233.82 0.476074 150.701 0.476074C67.5823 0.476074 0.201172 68.0811 0.201172 151.476C0.201172 234.871 67.5823 302.476 150.701 302.476Z" fill="white"/>
</mask>
<g mask="url(#mask1_390_269)">
<path d="M138.83 62.3428L156.543 67.2456C156.543 67.2456 164.6 68.077 157.766 91.1465C150.932 114.216 145.949 158.534 122.986 162.602C100.022 166.67 81.7188 114.433 81.7188 114.433L138.83 62.3428Z" fill="#090814"/>
<path d="M216.901 234.277L147.725 221.87L151.29 245.605L214.382 250.843C216.848 254.318 221.038 256.946 226.076 257.718C234.891 259.066 242.938 254.226 244.051 246.906C245.163 239.587 238.919 232.561 230.104 231.212C225.066 230.441 220.285 231.698 216.901 234.279V234.277Z" fill="#A0616A"/>
<path d="M117.576 149.696H124.47L128.606 156.273L164.012 225.916L147.752 249.645L124.472 225.848L117.576 149.696Z" fill="#5900E7"/>
<path opacity="0.2" d="M117.576 149.696H124.47L128.606 156.273L164.012 225.916L147.752 249.645L124.472 225.848L117.576 149.696Z" fill="black"/>
<path d="M85.2955 74.1023C88.0771 68.0338 92.4807 62.8574 98.0172 59.1481C103.554 55.4387 110.007 53.3415 116.659 53.0893C123.312 52.837 129.904 54.4396 135.704 57.7191C141.504 60.9987 146.284 65.8267 149.514 71.6674C152.745 77.508 154.298 84.1325 154.003 90.8055C153.707 97.4785 151.575 103.939 147.841 109.469C144.107 114.999 138.919 119.383 132.852 122.134C126.786 124.885 120.078 125.895 113.474 125.052L107.761 133.781L125.222 201.346L87.9292 164.086L68.0293 122.245C68.0293 122.245 79.0761 116.554 87.4123 108.236C84.2746 103.166 82.4389 97.3937 82.0695 91.4368C81.7002 85.4799 82.8083 79.524 85.2955 74.1023Z" fill="#A0616A"/>
<path d="M76.2141 130.683L115.507 193.414L109.303 139.286L127.226 183.377L100.351 294.142L72.7676 290.556L76.2141 130.683Z" fill="#090814"/>
<path d="M63.4624 311.202L111.513 206.634L73.8027 127.916L57.9569 136.003C57.9569 136.003 33.5477 144.14 45.1955 174.948C56.8432 205.756 50.8082 250.915 41.4019 257.937C31.9957 264.958 16.9297 287.34 16.9297 287.34C16.9297 287.34 20.3898 307.591 63.461 311.202H63.4624Z" fill="#5900E7"/>
<path d="M95.8613 301.733L128.605 302.475L117.577 256.782L134.121 232.685C134.121 232.685 148.881 215.451 140.13 197.247L131.364 179.599L122.435 150.804L108.615 136.907L119.646 195.191L95.8613 301.733Z" fill="#5900E7"/>
<path d="M237.25 242.703L137.888 244.112L133.752 249.645L331.311 249.881L237.25 242.703Z" fill="#090814"/>
<path d="M333.757 266.516H104.98V278.98H333.757V266.516Z" fill="#AFAFAF"/>
<path d="M366.366 249.379H69.2656V266.516H366.366V249.379Z" fill="#AFAFAF"/>
<path d="M330.927 250.524C331.926 250.524 332.899 250.21 333.71 249.626C334.522 249.042 335.13 248.217 335.45 247.268L359.73 175.436C359.973 174.72 360.042 173.956 359.934 173.207C359.826 172.459 359.543 171.746 359.108 171.129C358.672 170.511 358.098 170.005 357.431 169.653C356.763 169.3 356.023 169.111 355.269 169.101L260.871 167.827C259.897 167.821 258.944 168.111 258.137 168.659C257.33 169.206 256.707 169.985 256.349 170.894L228.958 242.089C228.682 242.808 228.582 243.583 228.667 244.349C228.753 245.115 229.021 245.849 229.45 246.489C229.878 247.129 230.454 247.656 231.128 248.025C231.802 248.394 232.556 248.595 233.324 248.61L330.926 250.523L330.927 250.524Z" fill="#5900E7"/>
<path d="M181.546 243.611L112.371 231.204L115.937 254.939L179.029 260.177C181.494 263.652 185.684 266.28 190.722 267.052C199.537 268.4 207.585 263.56 208.697 256.24C209.809 248.921 203.566 241.895 194.751 240.546C189.713 239.775 184.932 241.032 181.547 243.613L181.546 243.611Z" fill="#A0616A"/>
<path d="M59.6133 186.498L95.3439 251.512L116.165 253.696L125.994 233.447L111.543 221.672L86.2085 156.122" fill="#5900E7"/>
<path d="M156.544 67.2458C156.544 67.2458 116.798 10.4198 69.198 84.4055C69.198 84.4055 47.0237 91.1854 29.4952 114.435C11.9667 137.684 23.4174 208.3 57.5926 213.717C57.5926 213.717 43.0266 153.4 62.5817 141.401C82.1368 129.403 111.754 94.002 111.754 94.002L112.26 94.2106L150.436 76.4379L156.544 67.2458Z" fill="#090814"/>
</g>
</g>
</svg>
