<svg width="640" height="640" viewBox="0 0 640 640" fill="none" xmlns="http://www.w3.org/2000/svg">
<g clip-path="url(#clip0_390_221)">
<path d="M320 0C496.731 0 640 143.269 640 320C640 496.731 496.731 640 320 640C143.269 640 0 496.731 0 320C0 143.269 143.269 0 320 0Z" fill="#6C63FF"/>
<mask id="mask0_390_221" style="mask-type:luminance" maskUnits="userSpaceOnUse" x="0" y="0" width="640" height="640">
<path d="M320 640C496.731 640 640 496.731 640 320C640 143.269 496.731 0 320 0C143.269 0 0 143.269 0 320C0 496.731 143.269 640 320 640Z" fill="white"/>
</mask>
<g mask="url(#mask0_390_221)">
<path d="M338.859 258.406C369.4 258.406 394.159 233.647 394.159 203.106C394.159 172.564 369.4 147.806 338.859 147.806C308.317 147.806 283.559 172.564 283.559 203.106C283.559 233.647 308.317 258.406 338.859 258.406Z" fill="#A0616A"/>
<path d="M291.097 215.668C291.097 215.668 288.583 293.59 276.015 303.645C263.447 313.7 321.26 356.43 321.26 356.43L358.96 296.104V240.804L291.097 215.668Z" fill="#A0616A"/>
<path d="M316.233 321.244L285.716 275.163L268.477 298.622L243.34 369.003L263.451 642.987L381.594 645.501L396.676 331.301L358.976 286.057L316.233 321.244Z" fill="#F2F2F2"/>
<path d="M444.429 338.836L464.54 336.322C464.54 336.322 469.566 338.836 472.081 356.43C474.596 374.024 504.748 529.872 504.748 529.872L464.529 720.898L419.284 660.572L446.944 555.009L419.292 449.436L444.429 338.836Z" fill="#090814"/>
<path d="M188.04 336.328H172.958L135.252 539.928L170.441 698.289L205.633 640.475L195.578 577.635L200.591 522.335L218.191 489.655L188.04 336.328Z" fill="#090814"/>
<path d="M306.182 203.105L316.237 200.59C316.237 200.59 323.778 157.847 341.374 162.89C358.97 167.933 404.215 172.945 404.215 152.835C404.215 132.725 361.471 115.135 336.348 117.643C311.225 120.151 268.481 127.698 270.993 165.399C273.505 203.1 289.726 239.783 289.726 239.783L291.045 217.428L306.182 203.105Z" fill="#090814"/>
<path d="M462.03 336.323L381.593 303.646L362.741 289.82L306.18 539.926L268.48 426.812L279.791 282.279L175.48 336.323L210.672 507.251L215.698 572.606L200.614 625.392C200.614 625.392 147.828 663.092 165.424 703.314C183.02 743.536 203.124 746.057 203.124 746.057C203.124 746.057 288.587 665.621 293.624 645.513C298.661 625.405 306.191 590.213 306.191 590.213C306.191 590.213 348.934 751.086 399.191 748.571C449.448 746.056 449.465 693.271 449.465 693.271L436.898 637.971L416.79 580.157L426.845 484.644L462.03 336.323Z" fill="#090814"/>
</g>
</g>
<defs>
<clipPath id="clip0_390_221">
<rect width="640" height="640" fill="white"/>
</clipPath>
</defs>
</svg>
