<svg width="788" height="334" viewBox="0 0 788 334" fill="none" xmlns="http://www.w3.org/2000/svg">
<g clip-path="url(#clip0_172_156)">
<path d="M240.732 3.7972C252.16 -1.05716 266.487 -0.523369 275.837 7.66211C262.544 10.0056 250.506 16.9892 241.852 27.3775C238.53 31.3959 235.251 36.2124 230.142 37.2091C226.962 37.8293 223.641 36.7619 220.927 34.9895C218.213 33.2169 216.003 30.784 213.826 28.379L213.068 28.0968C220.376 18.0354 229.303 8.65157 240.732 3.7972Z" fill="#F0F0F0"/>
<path d="M275.694 7.88006C265.635 5.78963 255.174 6.93124 245.799 11.1427C243.764 12.0134 241.88 13.2003 240.214 14.6597C238.637 16.1339 237.482 18.0047 236.87 20.0778C236.26 21.9992 235.859 24.0354 234.794 25.7748C234.236 26.6571 233.498 27.411 232.629 27.9872C231.76 28.5634 230.779 28.9488 229.751 29.1182C227.201 29.6071 224.627 29.1478 222.126 28.6108C219.349 28.0147 216.474 27.3513 213.651 28.0505C213.309 28.1352 213.198 27.598 213.539 27.5134C218.45 26.297 223.201 29.0061 228.115 28.7616C230.408 28.6475 232.68 27.8397 234.054 25.9031C235.255 24.2097 235.671 22.1103 236.271 20.1594C236.839 18.1283 237.894 16.2675 239.344 14.7395C240.93 13.1998 242.766 11.9421 244.774 11.0202C249.259 8.87244 254.054 7.44544 258.982 6.79144C264.601 6.01376 270.313 6.20599 275.868 7.35982C276.212 7.43137 276.035 7.95115 275.694 7.88006Z" fill="white"/>
<path d="M248.738 9.60863C248.247 7.93507 248.365 6.14097 249.071 4.54671C249.777 2.95246 251.025 1.66187 252.593 0.905437C252.91 0.753472 253.161 1.24143 252.843 1.39359C251.382 2.09528 250.219 3.29757 249.565 4.78349C248.91 6.2694 248.807 7.94105 249.273 9.49672C249.374 9.8349 248.838 9.94488 248.738 9.60863Z" fill="white"/>
<path d="M237.052 19.0629C240.158 20.7982 243.802 21.2954 247.258 20.4555C247.6 20.372 247.711 20.9091 247.369 20.9925C243.772 21.8599 239.98 21.3347 236.752 19.5218C236.444 19.3488 236.746 18.8908 237.052 19.0629Z" fill="white"/>
<path d="M264.407 6.71469C264.462 7.40193 264.687 8.0646 265.061 8.64319C265.435 9.22178 265.946 9.69817 266.549 10.0296C266.859 10.1986 266.557 10.6564 266.249 10.4885C265.585 10.1192 265.021 9.5924 264.606 8.95406C264.192 8.31573 263.94 7.58531 263.871 6.8266C263.859 6.75562 263.874 6.68257 263.913 6.6223C263.953 6.56202 264.014 6.51905 264.083 6.5021C264.154 6.48764 264.228 6.50186 264.289 6.54166C264.349 6.58147 264.392 6.64365 264.407 6.71469Z" fill="white"/>
<path d="M274.718 49.7928C274.522 49.6927 274.325 49.5927 274.125 49.4948C271.478 48.1639 268.728 47.0508 265.902 46.1666C265.685 46.0947 265.463 46.0252 265.244 45.9597C258.412 43.9021 251.259 43.1345 244.148 43.6959C241.318 43.922 238.51 44.3636 235.747 45.0169C231.932 45.9194 227.866 47.2024 224.088 46.7999C223.693 46.7624 223.301 46.7003 222.914 46.6142L212.784 29.0463C212.781 28.9947 212.774 28.9453 212.77 28.8936L212.334 28.2108C212.474 28.1671 212.62 28.1248 212.761 28.0811C212.842 28.0554 212.925 28.0337 213.006 28.008C213.061 27.9921 213.116 27.9765 213.165 27.959C213.183 27.9536 213.201 27.9485 213.216 27.9454C213.264 27.9279 213.311 27.9169 213.356 27.9017C214.173 27.6631 214.993 27.4299 215.816 27.202C215.82 27.1997 215.82 27.1997 215.826 27.2013C222.083 25.4045 228.529 24.3585 235.031 24.085C235.225 24.0795 235.423 24.0714 235.622 24.0739C238.531 24.0064 241.441 24.1774 244.322 24.5852C245.899 24.8136 247.463 25.122 249.009 25.509C253.001 26.5169 256.811 28.1483 260.298 30.3434C267.248 34.7203 272.725 41.278 274.582 49.1871C274.63 49.3894 274.675 49.5881 274.718 49.7928Z" fill="#F0F0F0"/>
<path d="M274.473 49.882C267.697 42.1387 258.659 36.7339 248.645 34.4352C246.498 33.902 244.281 33.7115 242.075 33.8708C239.931 34.0956 237.886 34.8921 236.152 36.1777C234.512 37.3438 232.969 38.727 231.075 39.4729C230.1 39.8403 229.058 39.9968 228.018 39.932C226.978 39.8673 225.964 39.5829 225.041 39.0974C222.711 37.9477 220.932 36.0269 219.258 34.0878C217.398 31.9349 215.501 29.6691 212.827 28.5229C212.503 28.384 212.737 27.888 213.061 28.0267C217.712 30.0209 219.879 35.0524 223.949 37.8246C225.848 39.1181 228.148 39.8454 230.407 39.1285C232.382 38.5015 233.975 37.0765 235.625 35.8814C237.298 34.6024 239.257 33.7537 241.332 33.4093C243.523 33.1379 245.744 33.2424 247.9 33.7183C252.771 34.7122 257.456 36.4679 261.783 38.9213C266.737 41.6939 271.182 45.2959 274.925 49.5717C275.156 49.8364 274.704 50.145 274.473 49.882Z" fill="white"/>
<path d="M251.914 34.9849C252.526 33.3522 253.698 31.9911 255.219 31.1446C256.739 30.2981 258.511 30.0214 260.216 30.3638C260.561 30.4343 260.468 30.9751 260.123 30.9046C258.535 30.5827 256.885 30.8407 255.471 31.6318C254.056 32.423 252.97 33.6952 252.408 35.219C252.286 35.55 251.792 35.314 251.914 34.9849Z" fill="white"/>
<path d="M236.906 35.4764C238.345 38.7376 240.956 41.3353 244.22 42.7513C244.543 42.8913 244.309 43.3873 243.986 43.2475C240.593 41.7676 237.881 39.0588 236.392 35.6619C236.25 35.338 236.765 35.1543 236.906 35.4764Z" fill="white"/>
<path d="M266.161 42.136C265.793 42.7182 265.574 43.3831 265.525 44.0708C265.477 44.7585 265.599 45.4477 265.881 46.0763C266.027 46.3982 265.511 46.5815 265.367 46.2617C265.058 45.5657 264.924 44.8045 264.976 44.0445C265.028 43.2845 265.265 42.5489 265.666 41.902C265.699 41.8378 265.755 41.7886 265.822 41.7642C265.89 41.7399 265.964 41.7423 266.03 41.7709C266.096 41.8022 266.146 41.8581 266.17 41.9265C266.195 41.9949 266.191 42.0702 266.161 42.136Z" fill="white"/>
<path d="M672.723 324.577H663.755L659.488 289.882L672.724 289.883L672.723 324.577Z" fill="#A0616A"/>
<path d="M675.01 333.296L646.092 333.295V332.928C646.092 329.934 647.278 327.063 649.389 324.946C651.5 322.829 654.362 321.64 657.348 321.64L675.011 321.64L675.01 333.296Z" fill="#2F2E41"/>
<path d="M742.554 320.683L733.686 322.028L724.297 288.362L735.922 286.378L742.554 320.683Z" fill="#A0616A"/>
<path d="M746.116 328.962L717.523 333.296L717.468 332.933C717.022 329.973 717.767 326.956 719.538 324.547C721.31 322.137 723.963 320.532 726.915 320.084L744.38 317.437L746.116 328.962Z" fill="#2F2E41"/>
<path d="M486.739 333.296H218.756V64.5244H486.739V333.296Z" fill="white"/>
<path d="M486.739 333.296H218.756V64.5244H486.739V333.296ZM222.715 329.325H482.78V68.4955H222.715V329.325Z" fill="#F0F0F0"/>
<path d="M445.876 180.066H274.01V186.151H445.876V180.066Z" fill="#5900E7"/>
<path d="M445.876 195.886H274.01V201.971H445.876V195.886Z" fill="#5900E7"/>
<path d="M445.876 211.707H274.01V217.792H445.876V211.707Z" fill="#5900E7"/>
<path d="M263.579 187.971C265.765 187.971 267.538 186.193 267.538 184C267.538 181.807 265.765 180.029 263.579 180.029C261.392 180.029 259.619 181.807 259.619 184C259.619 186.193 261.392 187.971 263.579 187.971Z" fill="#5900E7"/>
<path d="M445.876 111.896H274.01V117.98H445.876V111.896Z" fill="#F0F0F0"/>
<path d="M445.876 127.716H274.01V133.801H445.876V127.716Z" fill="#F0F0F0"/>
<path d="M445.876 143.537H274.01V149.621H445.876V143.537Z" fill="#F0F0F0"/>
<path d="M263.579 119.139C265.765 119.139 267.538 117.361 267.538 115.168C267.538 112.975 265.765 111.197 263.579 111.197C261.392 111.197 259.619 112.975 259.619 115.168C259.619 117.361 261.392 119.139 263.579 119.139Z" fill="#F0F0F0"/>
<path d="M445.876 248.898H274.01V254.983H445.876V248.898Z" fill="#F0F0F0"/>
<path d="M445.876 264.719H274.01V270.804H445.876V264.719Z" fill="#F0F0F0"/>
<path d="M445.876 280.539H274.01V286.624H445.876V280.539Z" fill="#F0F0F0"/>
<path d="M263.579 256.141C265.765 256.141 267.538 254.363 267.538 252.17C267.538 249.977 265.765 248.199 263.579 248.199C261.392 248.199 259.619 249.977 259.619 252.17C259.619 254.363 261.392 256.141 263.579 256.141Z" fill="#E5E5E5"/>
<path d="M630.592 227.123H474.666C472.33 227.117 470.437 223.233 470.434 218.438V102.096C470.434 97.3014 472.33 93.4186 474.666 93.4106H630.592C632.928 93.4166 634.822 97.3004 634.825 102.096V218.437C634.822 223.231 632.925 227.117 630.592 227.123Z" fill="white"/>
<path d="M630.592 227.123H474.666C472.33 227.117 470.437 223.233 470.434 218.438V102.096C470.434 97.3014 472.33 93.4186 474.666 93.4106H630.592C632.928 93.4166 634.822 97.3004 634.825 102.096V218.437C634.822 223.231 632.925 227.117 630.592 227.123ZM474.666 96.8844C473.264 96.8844 472.128 99.2193 472.126 102.096V218.437C472.126 221.313 473.264 223.645 474.666 223.648H630.592C631.995 223.648 633.13 221.314 633.132 218.437V102.096C633.132 99.2194 631.995 96.8875 630.592 96.8845L474.666 96.8844Z" fill="#E6E6E6"/>
<path d="M573.741 188.273H531.77V191.437H573.741V188.273Z" fill="#5900E7"/>
<path d="M578.974 196.495H526.152V199.659H578.974V196.495Z" fill="#5900E7"/>
<path d="M580.034 148.361C580.032 153.117 578.801 157.79 576.46 161.926C574.12 166.061 570.749 169.517 566.679 171.956C562.609 174.394 557.977 175.733 553.237 175.84C548.497 175.947 543.81 174.82 539.634 172.567L539.629 172.562C535.364 170.257 531.784 166.86 529.254 162.716C526.724 158.571 525.334 153.829 525.227 148.97C525.12 144.112 526.299 139.313 528.644 135.06C530.989 130.808 534.416 127.255 538.575 124.763C542.735 122.272 547.479 120.931 552.324 120.877C557.169 120.823 561.941 122.059 566.155 124.457C570.368 126.855 573.873 130.331 576.311 134.53C578.749 138.73 580.034 143.502 580.034 148.361Z" fill="#CACACA"/>
<path d="M552.768 147.027C556.883 147.027 560.218 143.681 560.218 139.555C560.218 135.428 556.883 132.083 552.768 132.083C548.654 132.083 545.318 135.428 545.318 139.555C545.318 143.681 548.654 147.027 552.768 147.027Z" fill="white"/>
<path d="M565.49 162.466C557.162 165.398 548.08 165.362 539.775 162.366L539.77 162.362L545.32 151.374H560.22L565.49 162.466Z" fill="white"/>
<path d="M442.775 268.724H559.772V217.273H557.972V266.918H442.775V268.724Z" fill="#3F3D56"/>
<path d="M558.872 235.539C564.34 235.539 568.772 231.094 568.772 225.61C568.772 220.126 564.34 215.681 558.872 215.681C553.405 215.681 548.973 220.126 548.973 225.61C548.973 231.094 553.405 235.539 558.872 235.539Z" fill="#3F3D56"/>
<path d="M226.436 155.871H70.5097C68.1737 155.865 66.2803 151.981 66.2773 147.186V30.8433C66.2773 26.049 68.1737 22.1662 70.5097 22.1582H226.436C228.772 22.1642 230.666 26.048 230.668 30.8433V147.185C230.666 151.979 228.769 155.865 226.436 155.871Z" fill="white"/>
<path d="M226.436 155.871H70.5097C68.1737 155.865 66.2803 151.981 66.2773 147.186V30.8433C66.2773 26.049 68.1737 22.1662 70.5097 22.1582H226.436C228.772 22.1642 230.666 26.048 230.668 30.8433V147.185C230.666 151.979 228.769 155.865 226.436 155.871ZM70.5097 25.632C69.1076 25.632 67.9719 27.9669 67.9699 30.8432V147.185C67.9699 150.061 69.1075 152.393 70.5097 152.396H226.436C227.838 152.396 228.974 150.062 228.976 147.185V30.8433C228.976 27.9669 227.838 25.6351 226.436 25.6321L70.5097 25.632Z" fill="#E6E6E6"/>
<path d="M183.089 58.5044C176.15 51.1159 166.598 46.7526 156.486 46.3521V85.185L183.089 58.5044Z" fill="#3F3D56"/>
<path d="M183.089 63.3394L156.486 90.0199H193.664C193.677 80.0961 189.892 70.5457 183.089 63.3394Z" fill="#E4E4E4"/>
<path d="M193.702 92.8105C193.704 95.2309 193.481 97.6462 193.035 100.025C193.001 100.213 192.964 100.4 192.926 100.586C192.087 104.736 190.571 108.718 188.441 112.374C188.328 112.57 188.211 112.766 188.094 112.958V112.96C185.995 116.425 183.369 119.54 180.312 122.193C180.161 122.326 180.01 122.456 179.856 122.585C173.287 128.128 165.063 131.316 156.484 131.643V92.8105H193.702Z" fill="#F0F0F0"/>
<path d="M152.725 131.677C153.239 131.677 153.751 131.664 154.261 131.644V92.8096L126.102 121.052C133.289 127.886 142.82 131.69 152.725 131.677Z" fill="#CACACA"/>
<path d="M152.777 51.1523C147.688 51.1523 142.648 52.1577 137.947 54.111C133.245 56.0642 128.973 58.9272 125.374 62.5364C121.775 66.1456 118.921 70.4303 116.973 75.1459C115.026 79.8615 114.023 84.9157 114.023 90.0199H154.353V51.187C153.83 51.166 153.305 51.1523 152.777 51.1523Z" fill="#5900E7"/>
<path d="M143.533 92.8105L135.385 100.982L135.118 101.25L135.113 101.255L128.008 108.379L127.737 108.65L120.061 116.349L119.791 116.62V116.622L115.373 121.051C111.537 117.423 108.482 113.046 106.395 108.189C104.309 103.332 103.236 98.0988 103.242 92.8105H143.533Z" fill="#5900E7"/>
<path d="M274.457 199.055H157.461V147.604H159.261V197.249H274.457V199.055Z" fill="#3F3D56"/>
<path d="M158.361 165.87C163.828 165.87 168.26 161.425 168.26 155.941C168.26 150.458 163.828 146.012 158.361 146.012C152.893 146.012 148.461 150.458 148.461 155.941C148.461 161.425 152.893 165.87 158.361 165.87Z" fill="#3F3D56"/>
<path d="M714.902 152.638L704.944 155.255L705.606 171.447L705.688 200.928C704.707 201.609 703.955 202.572 703.532 203.69C703.109 204.809 703.034 206.03 703.317 207.192C703.601 208.354 704.23 209.402 705.12 210.198C706.011 210.994 707.121 211.5 708.305 211.649C709.488 211.798 710.689 211.584 711.749 211.033C712.808 210.483 713.675 209.623 714.237 208.568C714.798 207.512 715.027 206.311 714.893 205.122C714.758 203.933 714.267 202.813 713.485 201.91L716.545 172.322L714.902 152.638Z" fill="#A0616A"/>
<path d="M717.689 162.375L703.134 157.459L703.1 157.239C703.078 157.1 700.943 143.274 700.97 133.789C700.94 132.732 701.141 131.682 701.559 130.711C701.976 129.74 702.599 128.873 703.385 128.168C704.478 127.168 705.839 126.509 707.301 126.273C708.762 126.038 710.26 126.235 711.611 126.841C713.055 127.438 714.296 128.44 715.187 129.725C716.078 131.011 716.581 132.527 716.636 134.092L717.689 162.375Z" fill="#E4E4E4"/>
<path d="M690.611 161.018L668.348 155.238L658.057 189.999L657.691 319.495L674.716 319.388L681.832 214.577L727.187 311.424L745.476 309.223L705.607 205.406C705.607 205.406 707.802 187.064 700.852 177.893L702.315 168.355L690.611 161.018Z" fill="#2F2E41"/>
<path d="M702.975 170.923L701.29 170.897L667.078 157.181L683.446 120.62L691.216 122.037L689.802 116.361L706.972 112.152L709.959 124.137L714.368 128.155C715.478 129.169 716.271 130.483 716.65 131.94C717.03 133.396 716.979 134.932 716.505 136.36L706.351 166.914C706.434 167.407 706.409 167.912 706.278 168.394C706.147 168.876 705.912 169.323 705.591 169.705C705.27 170.086 704.869 170.393 704.417 170.604C703.965 170.814 703.473 170.923 702.975 170.923Z" fill="#E4E4E4"/>
<path d="M677.245 143.545L668.245 138.535L657.567 150.698L637.313 172.064C636.135 171.876 634.928 172.051 633.851 172.566C632.774 173.081 631.879 173.911 631.283 174.948C630.688 175.985 630.42 177.178 630.515 178.371C630.61 179.563 631.064 180.699 631.817 181.627C632.57 182.555 633.586 183.232 634.73 183.568C635.875 183.905 637.095 183.885 638.228 183.511C639.361 183.137 640.354 182.427 641.076 181.475C641.798 180.522 642.215 179.373 642.271 178.177L664.871 158.911L677.245 143.545Z" fill="#A0616A"/>
<path d="M672.551 152.514L665.418 138.873L665.545 138.69C665.624 138.576 673.608 127.102 680.163 120.264C680.87 119.48 681.738 118.86 682.709 118.448C683.679 118.035 684.727 117.84 685.781 117.876C687.26 117.911 688.698 118.378 689.916 119.221C691.135 120.063 692.082 121.244 692.641 122.618C693.273 124.05 693.481 125.634 693.239 127.181C692.997 128.727 692.316 130.172 691.278 131.341L672.551 152.514Z" fill="#E4E4E4"/>
<path d="M694.267 109.922C701.802 109.922 707.91 103.796 707.91 96.2392C707.91 88.6825 701.802 82.5566 694.267 82.5566C686.733 82.5566 680.625 88.6825 680.625 96.2392C680.625 103.796 686.733 109.922 694.267 109.922Z" fill="#A0616A"/>
<path d="M677.852 88.2161C680.146 84.097 681.023 82.3763 683.981 79.8715C686.597 77.6562 689.815 77.0056 692.41 79.1046C695.48 77.7743 698.896 77.4727 702.15 78.2445C705.405 79.0163 708.324 80.8205 710.475 83.389C712.626 85.9575 713.893 89.1533 714.089 92.5017C714.284 95.8501 713.398 99.1725 711.561 101.975C709.724 104.778 707.034 106.912 703.892 108.06C700.75 109.207 697.322 109.308 694.118 108.346C690.914 107.384 688.105 105.412 686.108 102.722C684.111 100.031 683.032 96.7664 683.032 93.4122C683.035 92.8232 683.07 92.2348 683.138 91.6498C680.883 91.332 680.107 88.5339 677.852 88.2161Z" fill="#2F2E41"/>
<path d="M74.494 207.831C75.1362 207.444 75.6859 206.92 76.1045 206.297C76.5231 205.674 76.8003 204.966 76.9167 204.224C77.033 203.481 76.9857 202.722 76.778 202C76.5703 201.278 76.2073 200.611 75.7145 200.045L82.3745 133.016L71.2536 133.756L68.1728 199.759C67.2795 200.652 66.744 201.843 66.6677 203.106C66.5913 204.369 66.9795 205.616 67.7587 206.611C68.5379 207.606 69.6539 208.28 70.8952 208.504C72.1366 208.729 73.4171 208.49 74.494 207.831Z" fill="#FFB8B8"/>
<path d="M66.748 130.533L69.6637 152.758L69.2589 166.379L81.4901 167.502L83.9415 156.173L85.292 126.181C85.3939 123.919 84.637 121.702 83.1739 119.977C81.7109 118.252 79.6504 117.148 77.4077 116.887C75.0809 116.615 72.7411 117.272 70.8931 118.716C69.0452 120.16 67.8373 122.274 67.5301 124.603L66.748 130.533Z" fill="#2F2E41"/>
<path d="M113.589 326.083H121.009L124.538 297.381H113.588L113.589 326.083Z" fill="#FFB7B7"/>
<path d="M111.695 323.653L126.307 323.653C128.776 323.653 131.145 324.637 132.892 326.388C134.638 328.14 135.619 330.515 135.619 332.992V333.295L111.696 333.296L111.695 323.653Z" fill="#2F2E41"/>
<path d="M52.3258 326.083H59.7451L63.2743 297.381H52.3242L52.3258 326.083Z" fill="#FFB7B7"/>
<path d="M50.4316 323.653L65.0432 323.653C67.5128 323.653 69.8817 324.637 71.6279 326.388C73.3742 328.14 74.3553 330.515 74.3555 332.992V333.295L50.4321 333.296L50.4316 323.653Z" fill="#2F2E41"/>
<path d="M81.1759 106.322C90.06 106.322 97.262 99.0988 97.262 90.1886C97.262 81.2784 90.06 74.0552 81.1759 74.0552C72.2918 74.0552 65.0898 81.2784 65.0898 90.1886C65.0898 99.0988 72.2918 106.322 81.1759 106.322Z" fill="#FFB8B8"/>
<path d="M83.2541 112.872L72.0907 114.152C69.3761 118.013 67.6159 122.466 66.9555 127.144C66.295 131.822 66.7532 136.59 68.2922 141.055L76.7156 165.494C76.7156 165.494 65.0226 189.005 65.0226 210.833C65.0226 232.661 42.7539 310.576 42.7539 310.576L74.0992 313.856L87.7762 230.854L106.624 313.521L128.14 310.008L116.289 201.622L108.459 165.947L108.125 148.55C108.125 148.55 111.455 135.496 103.121 127.138L92.9468 112.919L83.2541 112.872Z" fill="#2F2E41"/>
<path d="M161.953 170.343C161.921 169.521 161.709 168.715 161.332 167.983C160.956 167.252 160.424 166.612 159.774 166.109C159.124 165.606 158.372 165.252 157.571 165.072C156.77 164.892 155.939 164.89 155.137 165.067L94.4332 123.347L89.2852 134.453L150.892 172.183C151.277 173.515 152.136 174.658 153.305 175.396C154.475 176.135 155.874 176.418 157.238 176.191C158.601 175.964 159.834 175.244 160.703 174.166C161.573 173.088 162.017 171.728 161.953 170.343Z" fill="#FFB8B8"/>
<path d="M83.825 137.097L106.651 145.992L119.487 153.556L127.004 142.362L117.443 134.033L89.4224 116.936C87.309 115.646 84.7867 115.208 82.364 115.709C79.9412 116.211 77.7981 117.615 76.3664 119.638C74.881 121.737 74.2782 124.338 74.688 126.879C75.0977 129.42 76.4872 131.698 78.5566 133.22L83.825 137.097Z" fill="#2F2E41"/>
<path d="M99.927 84.4269H76.2891V74.0929C81.4773 72.0256 86.5543 70.2675 89.6233 74.0929C92.356 74.0929 94.9768 75.1816 96.9091 77.1196C98.8414 79.0576 99.927 81.6862 99.927 84.4269Z" fill="#2F2E41"/>
<path d="M80.5065 73.0607C66.3754 73.1234 62.4199 90.8257 62.4199 100.848C62.4199 106.437 64.9402 108.436 68.9006 109.113L70.2992 101.631L73.5751 109.435C74.6876 109.44 75.8563 109.419 77.0679 109.396L78.1786 107.102L80.6554 109.355C90.5753 109.37 104.991 108.481 98.5928 100.848C90.022 90.622 92.8236 73.006 80.5065 73.0607Z" fill="#2F2E41"/>
<path d="M728.237 128.693C727.612 126.321 727.519 123.84 727.964 121.427C728.623 116.767 730.106 112.272 731.462 107.767C732.818 103.261 734.062 98.6672 734.219 93.9636C734.375 89.2599 733.358 84.3839 730.562 80.6048C727.765 76.8255 722.998 74.349 718.359 75.0596C713.927 75.7385 710.057 79.7481 710.034 84.1968C709.241 85.6365 710.265 87.6027 711.725 88.4567C713.256 89.3525 715.101 89.4714 716.799 89.9807C718.465 90.5214 720.003 91.4015 721.315 92.5659C722.627 93.7304 723.684 95.154 724.422 96.7475C725.878 99.9649 726.265 103.566 725.527 107.021C724.859 110.369 723.32 113.467 722.167 116.68C721.014 119.892 720.243 123.42 721.17 126.705C721.939 129.132 723.556 131.198 725.724 132.522C727.892 133.847 730.465 134.342 732.967 133.915C731.825 133.479 730.801 132.779 729.98 131.871C729.158 130.964 728.561 129.875 728.237 128.693Z" fill="#2F2E41"/>
<path d="M786.826 333.699H1.4046C1.19525 333.699 0.99447 333.616 0.846434 333.467C0.698399 333.319 0.615234 333.117 0.615234 332.907C0.615234 332.697 0.698399 332.496 0.846434 332.348C0.99447 332.199 1.19525 332.116 1.4046 332.116H786.826C787.035 332.116 787.236 332.199 787.384 332.348C787.532 332.496 787.615 332.697 787.615 332.907C787.615 333.117 787.532 333.319 787.384 333.467C787.236 333.616 787.035 333.699 786.826 333.699Z" fill="#CACACA"/>
<path d="M607.611 295.211C606.079 282.858 598.446 270.687 586.7 266.667C591.333 279.382 591.332 293.33 586.697 306.043C584.893 310.94 582.377 316.197 584.074 321.132C585.131 324.203 587.715 326.553 590.604 328.022C593.492 329.491 596.698 330.191 599.864 330.877L600.487 331.394C605.513 320.012 609.143 307.563 607.611 295.211Z" fill="#F0F0F0"/>
<path d="M586.583 266.901C593.423 274.588 597.675 284.241 598.733 294.489C599 296.691 598.92 298.922 598.494 301.099C598.011 303.206 596.974 305.145 595.492 306.715C594.138 308.206 592.582 309.574 591.614 311.369C591.132 312.295 590.85 313.313 590.788 314.356C590.726 315.399 590.884 316.444 591.253 317.421C592.107 319.88 593.792 321.885 595.508 323.787C597.413 325.9 599.425 328.064 600.234 330.865C600.333 331.204 600.852 331.032 600.754 330.693C599.345 325.82 594.629 323.052 592.38 318.663C591.33 316.615 590.889 314.238 591.873 312.076C592.734 310.186 594.338 308.773 595.721 307.275C597.19 305.766 598.268 303.918 598.86 301.894C599.395 299.746 599.562 297.522 599.352 295.318C598.96 290.348 597.792 285.471 595.889 280.865C593.747 275.597 590.722 270.735 586.945 266.489C586.711 266.227 586.351 266.64 586.583 266.901Z" fill="white"/>
<path d="M598.586 291.169C600.276 290.758 601.766 289.757 602.788 288.346C603.811 286.934 604.3 285.205 604.168 283.465C604.14 283.113 603.594 283.14 603.621 283.493C603.747 285.112 603.291 286.723 602.337 288.036C601.382 289.348 599.991 290.274 598.415 290.648C598.072 290.73 598.246 291.251 598.586 291.169Z" fill="white"/>
<path d="M596.277 306.049C593.224 304.221 590.971 301.306 589.965 297.886C589.866 297.547 589.347 297.719 589.446 298.057C590.499 301.615 592.85 304.644 596.031 306.539C596.334 306.72 596.579 306.229 596.277 306.049Z" fill="white"/>
<path d="M593.24 276.117C592.619 276.413 591.934 276.549 591.248 276.514C590.561 276.48 589.894 276.274 589.306 275.917C589.005 275.732 588.761 276.224 589.06 276.407C589.711 276.799 590.448 277.025 591.207 277.065C591.965 277.105 592.722 276.959 593.411 276.638C593.479 276.613 593.534 276.563 593.566 276.499C593.599 276.435 593.605 276.36 593.585 276.291C593.562 276.222 593.513 276.166 593.448 276.133C593.383 276.1 593.308 276.094 593.24 276.117Z" fill="white"/>
<path d="M550.896 288.73C551.081 288.851 551.266 288.971 551.451 289.096C553.924 290.728 556.262 292.558 558.44 294.569C558.611 294.722 558.782 294.879 558.948 295.037C564.144 299.938 568.388 305.764 571.464 312.22C572.685 314.789 573.71 317.449 574.529 320.174C575.66 323.939 576.588 328.11 578.827 331.19C579.057 331.513 579.307 331.823 579.575 332.116H599.81C599.856 332.092 599.902 332.074 599.948 332.051L600.756 332.088C600.724 331.944 600.687 331.796 600.655 331.653C600.636 331.569 600.613 331.486 600.594 331.403C600.581 331.347 600.567 331.291 600.558 331.24C600.553 331.222 600.548 331.203 600.544 331.19C600.535 331.139 600.521 331.092 600.511 331.046C600.308 330.217 600.099 329.388 599.884 328.56C599.884 328.555 599.884 328.555 599.879 328.55C598.298 322.219 595.973 316.098 592.954 310.316C592.862 310.145 592.769 309.969 592.668 309.798C591.27 307.239 589.666 304.798 587.871 302.501C586.884 301.246 585.835 300.042 584.727 298.894C581.858 295.932 578.543 293.441 574.903 291.513C567.646 287.67 559.243 286.198 551.487 288.545C551.289 288.605 551.095 288.666 550.896 288.73Z" fill="#F0F0F0"/>
<path d="M550.942 288.988C561.019 290.995 570.208 296.136 577.205 303.679C578.741 305.276 580.015 307.106 580.982 309.101C581.861 311.075 582.198 313.249 581.956 315.398C581.771 317.406 581.349 319.438 581.654 321.456C581.825 322.486 582.211 323.469 582.788 324.339C583.364 325.21 584.118 325.948 584.998 326.506C587.157 327.953 589.706 328.536 592.218 329.02C595.007 329.556 597.912 330.069 600.24 331.816C600.522 332.028 600.833 331.577 600.552 331.365C596.502 328.325 591.074 328.963 586.644 326.817C584.577 325.816 582.798 324.183 582.285 321.863C581.838 319.834 582.27 317.738 582.475 315.707C582.742 313.615 582.494 311.488 581.752 309.514C580.889 307.476 579.687 305.6 578.197 303.967C574.901 300.235 571.04 297.047 566.756 294.518C561.883 291.605 556.549 289.55 550.984 288.441C550.64 288.372 550.6 288.92 550.942 288.988Z" fill="white"/>
<path d="M575.094 301.117C576.197 299.768 576.785 298.069 576.754 296.325C576.723 294.581 576.075 292.904 574.926 291.595C574.692 291.331 574.272 291.682 574.506 291.947C575.579 293.164 576.182 294.726 576.207 296.35C576.233 297.974 575.678 299.554 574.644 300.805C574.42 301.077 574.871 301.387 575.094 301.117Z" fill="white"/>
<path d="M582.183 314.392C578.648 314.776 575.099 313.809 572.243 311.685C571.96 311.474 571.649 311.926 571.932 312.136C574.908 314.341 578.603 315.34 582.281 314.932C582.632 314.893 582.532 314.353 582.183 314.392Z" fill="white"/>
<path d="M561.788 292.327C561.47 292.938 561.006 293.461 560.436 293.847C559.867 294.234 559.211 294.473 558.527 294.542C558.176 294.577 558.276 295.117 558.625 295.082C559.38 295.002 560.104 294.737 560.734 294.311C561.364 293.886 561.88 293.312 562.238 292.639C562.277 292.579 562.291 292.506 562.279 292.435C562.266 292.364 562.226 292.301 562.169 292.258C562.109 292.217 562.035 292.201 561.964 292.214C561.893 292.227 561.83 292.268 561.788 292.327Z" fill="white"/>
<path d="M152.249 295.211C153.78 282.858 161.413 270.687 173.16 266.667C168.527 279.382 168.528 293.33 173.162 306.043C174.967 310.94 177.483 316.197 175.785 321.132C174.729 324.203 172.145 326.553 169.256 328.022C166.368 329.491 163.162 330.191 159.996 330.877L159.373 331.394C154.347 320.012 150.717 307.563 152.249 295.211Z" fill="#F0F0F0"/>
<path d="M173.275 266.901C166.435 274.588 162.183 284.241 161.125 294.489C160.858 296.691 160.938 298.922 161.364 301.099C161.847 303.206 162.884 305.145 164.366 306.715C165.72 308.206 167.276 309.574 168.244 311.369C168.726 312.295 169.008 313.313 169.07 314.356C169.132 315.399 168.974 316.444 168.605 317.421C167.751 319.88 166.066 321.885 164.35 323.787C162.445 325.9 160.433 328.064 159.623 330.865C159.525 331.204 159.006 331.032 159.104 330.693C160.513 325.82 165.229 323.052 167.478 318.663C168.528 316.615 168.968 314.238 167.985 312.076C167.124 310.186 165.52 308.773 164.137 307.275C162.668 305.766 161.59 303.918 160.998 301.894C160.463 299.746 160.296 297.522 160.506 295.318C160.898 290.348 162.066 285.471 163.969 280.865C166.111 275.597 169.136 270.735 172.913 266.489C173.147 266.227 173.507 266.64 173.275 266.901Z" fill="white"/>
<path d="M161.271 291.169C159.581 290.758 158.091 289.757 157.069 288.346C156.046 286.934 155.557 285.205 155.689 283.465C155.717 283.113 156.263 283.14 156.236 283.493C156.11 285.112 156.565 286.723 157.52 288.036C158.475 289.348 159.866 290.274 161.442 290.648C161.785 290.73 161.611 291.251 161.271 291.169Z" fill="white"/>
<path d="M163.581 306.049C166.634 304.221 168.888 301.306 169.893 297.886C169.992 297.547 170.511 297.719 170.412 298.057C169.36 301.615 167.008 304.644 163.827 306.539C163.524 306.72 163.28 306.229 163.581 306.049Z" fill="white"/>
<path d="M166.619 276.117C167.24 276.413 167.924 276.549 168.611 276.514C169.297 276.48 169.964 276.274 170.552 275.917C170.853 275.732 171.097 276.224 170.798 276.407C170.147 276.799 169.41 277.025 168.651 277.065C167.893 277.105 167.136 276.959 166.447 276.638C166.38 276.613 166.324 276.563 166.292 276.499C166.26 276.435 166.253 276.36 166.273 276.291C166.296 276.222 166.346 276.166 166.41 276.133C166.475 276.1 166.55 276.094 166.619 276.117Z" fill="white"/>
<path d="M208.961 288.73C208.777 288.851 208.592 288.971 208.407 289.096C205.933 290.728 203.596 292.558 201.418 294.569C201.247 294.722 201.076 294.879 200.91 295.037C195.714 299.938 191.47 305.764 188.394 312.22C187.173 314.789 186.148 317.449 185.329 320.174C184.198 323.939 183.27 328.11 181.031 331.19C180.801 331.513 180.551 331.823 180.283 332.116H160.048C160.002 332.092 159.956 332.074 159.909 332.051L159.102 332.088C159.134 331.944 159.171 331.796 159.203 331.653C159.222 331.569 159.245 331.486 159.263 331.403C159.277 331.347 159.291 331.291 159.3 331.24C159.305 331.222 159.309 331.203 159.314 331.19C159.323 331.139 159.337 331.092 159.346 331.046C159.55 330.217 159.759 329.388 159.974 328.56C159.974 328.555 159.974 328.555 159.979 328.55C161.56 322.219 163.885 316.098 166.904 310.316C166.996 310.145 167.088 309.969 167.19 309.798C168.588 307.239 170.192 304.798 171.987 302.501C172.973 301.246 174.023 300.042 175.131 298.894C177.999 295.932 181.314 293.441 184.955 291.513C192.212 287.67 200.614 286.198 208.37 288.545C208.569 288.605 208.763 288.666 208.961 288.73Z" fill="#F0F0F0"/>
<path d="M208.917 288.988C198.841 290.995 189.652 296.136 182.654 303.679C181.119 305.276 179.845 307.106 178.878 309.101C177.998 311.075 177.662 313.249 177.904 315.398C178.089 317.406 178.511 319.438 178.206 321.456C178.035 322.486 177.649 323.469 177.072 324.339C176.496 325.21 175.742 325.948 174.861 326.506C172.703 327.953 170.154 328.536 167.642 329.02C164.853 329.556 161.947 330.069 159.62 331.816C159.338 332.028 159.026 331.577 159.308 331.365C163.358 328.325 168.785 328.963 173.216 326.817C175.283 325.816 177.062 324.183 177.574 321.863C178.022 319.834 177.59 317.738 177.384 315.707C177.118 313.615 177.366 311.488 178.108 309.514C178.97 307.476 180.173 305.6 181.663 303.967C184.959 300.235 188.82 297.047 193.104 294.518C197.977 291.605 203.311 289.55 208.875 288.441C209.22 288.372 209.26 288.92 208.917 288.988Z" fill="white"/>
<path d="M184.765 301.117C183.662 299.768 183.074 298.069 183.105 296.325C183.135 294.581 183.783 292.904 184.933 291.595C185.166 291.331 185.587 291.682 185.353 291.947C184.28 293.164 183.677 294.726 183.651 296.35C183.626 297.974 184.18 299.554 185.214 300.805C185.439 301.077 184.988 301.387 184.765 301.117Z" fill="white"/>
<path d="M177.676 314.392C181.211 314.776 184.76 313.809 187.616 311.685C187.899 311.474 188.21 311.926 187.927 312.136C184.951 314.341 181.256 315.34 177.578 314.932C177.227 314.893 177.327 314.353 177.676 314.392Z" fill="white"/>
<path d="M198.069 292.327C198.387 292.938 198.852 293.461 199.421 293.847C199.99 294.234 200.646 294.473 201.33 294.542C201.681 294.577 201.581 295.117 201.232 295.082C200.477 295.002 199.753 294.737 199.123 294.311C198.493 293.886 197.977 293.312 197.619 292.639C197.58 292.579 197.566 292.506 197.579 292.435C197.592 292.364 197.631 292.301 197.689 292.258C197.748 292.217 197.822 292.201 197.893 292.214C197.964 292.227 198.028 292.268 198.069 292.327Z" fill="white"/>
</g>
<defs>
<clipPath id="clip0_172_156">
<rect width="787" height="333" fill="white" transform="translate(0.615234 0.699219)"/>
</clipPath>
</defs>
</svg>
